# xmcd
#
# Track frame offsets: 
#        150
#        17918
#        33839
#        53698
#        73935
#        91819
#        116360
#        133037
#
# Disc length: 2060 seconds
#
# Revision: 0
# Processed by: cddbd v1.5.2PL0 Copyright (c) Steve Scherf et al.
# Submitted via: ExactAudioCopy v1.0b3
#
DISCID=63080a08
DTITLE=Ilir Shaqiri - E di një Këng për Ty
DYEAR=2007
DGENRE=Folk - Shqip
TTITLE0=Moj e rritu në Kosovë
TTITLE1=S´të them lamtumirë
TTITLE2=Tetovarja
TTITLE3=Përtej Ëndrrës të Kërkoj
TTITLE4=Kopshti i dashurisë
TTITLE5=Trandafilat e Turkeshës
TTITLE6=Vëllai im
TTITLE7=Drenicë o Diell
EXTD=
EXTT0=
EXTT1=
EXTT2=
EXTT3=
EXTT4=
EXTT5=
EXTT6=
EXTT7=
PLAYORDER=
